<svg width="220" height="60" viewBox="0 0 220 60" fill="none" xmlns="http://www.w3.org/2000/svg">
  <g transform="translate(10 8) scale(0.11)">
    <path d="M92.175 13.5C72.075 22.2 39.9182 38 39.9182 38C39.9182 38 49.9182 58.5 60.675 74.25C78.675 63.15 134.775 45.45 156.975 45.45C178.875 45.45 198.675 50.85 216.375 61.65C234.375 72.45 248.625 87.15 259.125 105.75C269.925 124.05 275.325 144.45 275.325 166.95C275.325 189.45 270.075 209.85 259.575 228.15C249.075 246.45 234.975 261 217.275 271.8C199.575 282.6 179.775 288 157.875 288C135.675 288 115.575 282.6 97.575 271.8C79.575 261 64.7587 246.763 54.825 228.15C12.5468 148.931 139.375 153.35 128.375 189.35L157.875 166.95C156.525 103.05 -27.082 84 3.41824 233C6.68281 248.948 23.775 270.3 39.075 285.3C54.375 300.3 72.075 312.15 92.175 320.85C112.275 329.25 133.725 333.45 156.525 333.45C179.325 333.45 200.775 329.25 220.875 320.85C241.275 312.15 259.125 300.15 274.425 284.85C290.025 269.55 302.175 251.85 310.875 231.75C319.575 211.65 323.925 190.05 323.925 166.95C323.925 144.45 319.575 123.15 310.875 103.05C302.175 82.95 290.025 65.25 274.425 49.95C259.125 34.35 241.275 22.2 220.875 13.5C200.775 4.50001 179.325 0 156.525 0C133.725 0 112.275 4.50001 92.175 13.5Z" fill="#2C7A7B"/>
    <path d="M183.064 224.243L106.098 192.523L178.591 141.117L183.064 224.243Z" fill="#F47C48"/>
  </g>
  <text x="58" y="37" font-family="Inter, Arial, sans-serif" font-size="27" font-weight="700" letter-spacing="-0.02em">
    <tspan fill="#F47C48">Out</tspan><tspan fill="#2C7A7B">Loop</tspan>
  </text>
</svg>
